<mxfile host="Electron" modified="2024-12-17T19:54:00.521Z" agent="Mozilla/5.0 (Windows NT 10.0; Win64; x64) AppleWebKit/537.36 (KHTML, like Gecko) draw.io/24.2.5 Chrome/120.0.6099.109 Electron/28.1.0 Safari/537.36" etag="VVrBSkt1q2xOBihh-SV_" version="24.2.5" type="device">
  <diagram name="Seite-1" id="aSV8eb3JquYfMa1tWB_q">
    <mxGraphModel dx="3217" dy="1423" grid="0" gridSize="10" guides="1" tooltips="1" connect="1" arrows="1" fold="1" page="1" pageScale="1" pageWidth="827" pageHeight="1169" background="#ffffff" math="0" shadow="0">
      <root>
        <mxCell id="0" />
        <mxCell id="1" parent="0" />
        <mxCell id="nGIF9m0Wj2FXg4HJTF-6-27" value="" style="shape=datastore;whiteSpace=wrap;html=1;fillColor=#ffe6cc;strokeColor=#d79b00;" vertex="1" parent="1">
          <mxGeometry x="124" y="1269" width="223" height="227" as="geometry" />
        </mxCell>
        <mxCell id="nGIF9m0Wj2FXg4HJTF-6-8" value="&lt;font style=&quot;font-size: 20px;&quot; color=&quot;#000000&quot;&gt;WebUI&lt;/font&gt;&lt;div style=&quot;font-size: 20px;&quot;&gt;&lt;br&gt;&lt;/div&gt;" style="verticalAlign=top;align=left;spacingTop=8;spacingLeft=2;spacingRight=12;shape=cube;size=10;direction=south;fontStyle=4;html=1;whiteSpace=wrap;fillColor=#ffe6cc;strokeColor=#d79b00;" vertex="1" parent="1">
          <mxGeometry x="-309" y="531" width="459" height="307" as="geometry" />
        </mxCell>
        <mxCell id="nGIF9m0Wj2FXg4HJTF-6-9" value="&lt;font style=&quot;font-size: 14px;&quot; color=&quot;#000000&quot;&gt;*.html&lt;/font&gt;" style="rounded=1;whiteSpace=wrap;html=1;fillColor=#ffe6cc;strokeColor=#d79b00;" vertex="1" parent="1">
          <mxGeometry x="-43" y="566" width="120" height="60" as="geometry" />
        </mxCell>
        <mxCell id="nGIF9m0Wj2FXg4HJTF-6-10" value="&lt;font style=&quot;font-size: 14px;&quot; color=&quot;#000000&quot;&gt;script.js&lt;/font&gt;" style="rounded=1;whiteSpace=wrap;html=1;fillColor=#ffe6cc;strokeColor=#d79b00;" vertex="1" parent="1">
          <mxGeometry x="-43" y="723" width="120" height="60" as="geometry" />
        </mxCell>
        <mxCell id="nGIF9m0Wj2FXg4HJTF-6-11" value="&lt;font style=&quot;font-size: 14px;&quot; color=&quot;#000000&quot;&gt;*.css&lt;/font&gt;" style="rounded=1;whiteSpace=wrap;html=1;fillColor=#ffe6cc;strokeColor=#d79b00;" vertex="1" parent="1">
          <mxGeometry x="-250" y="723" width="120" height="60" as="geometry" />
        </mxCell>
        <mxCell id="nGIF9m0Wj2FXg4HJTF-6-12" value="&lt;div style=&quot;font-size: 20px;&quot;&gt;&lt;font color=&quot;#000000&quot;&gt;App&lt;/font&gt;&lt;/div&gt;" style="verticalAlign=top;align=left;spacingTop=8;spacingLeft=2;spacingRight=12;shape=cube;size=10;direction=south;fontStyle=4;html=1;whiteSpace=wrap;fillColor=#ffe6cc;strokeColor=#d79b00;" vertex="1" parent="1">
          <mxGeometry x="-309" y="915" width="459" height="209" as="geometry" />
        </mxCell>
        <mxCell id="nGIF9m0Wj2FXg4HJTF-6-13" value="&lt;font color=&quot;#000000&quot;&gt;&lt;span style=&quot;font-size: 14px;&quot;&gt;ConfigServer.js&lt;/span&gt;&lt;/font&gt;" style="rounded=1;whiteSpace=wrap;html=1;fillColor=#ffe6cc;strokeColor=#d79b00;" vertex="1" parent="1">
          <mxGeometry x="-239" y="990.5" width="120" height="60" as="geometry" />
        </mxCell>
        <mxCell id="nGIF9m0Wj2FXg4HJTF-6-14" value="&lt;font color=&quot;#000000&quot;&gt;&lt;span style=&quot;font-size: 14px;&quot;&gt;app.js&lt;/span&gt;&lt;/font&gt;" style="rounded=1;whiteSpace=wrap;html=1;fillColor=#ffe6cc;strokeColor=#d79b00;" vertex="1" parent="1">
          <mxGeometry x="-32" y="990.5" width="120" height="60" as="geometry" />
        </mxCell>
        <mxCell id="nGIF9m0Wj2FXg4HJTF-6-16" value="&lt;div style=&quot;font-size: 20px;&quot;&gt;&lt;font color=&quot;#000000&quot;&gt;Mediasoup-Client&lt;/font&gt;&lt;/div&gt;" style="verticalAlign=top;align=left;spacingTop=8;spacingLeft=2;spacingRight=12;shape=cube;size=10;direction=west;fontStyle=4;html=1;whiteSpace=wrap;fillColor=#ffe6cc;strokeColor=#d79b00;" vertex="1" parent="1">
          <mxGeometry x="-731" y="660" width="307" height="459" as="geometry" />
        </mxCell>
        <mxCell id="nGIF9m0Wj2FXg4HJTF-6-17" value="&lt;font color=&quot;#000000&quot;&gt;&lt;span style=&quot;font-size: 14px;&quot;&gt;roomPage.js&lt;/span&gt;&lt;/font&gt;" style="rounded=1;whiteSpace=wrap;html=1;fillColor=#ffe6cc;strokeColor=#d79b00;direction=south;" vertex="1" parent="1">
          <mxGeometry x="-717" y="833.5" width="60" height="120" as="geometry" />
        </mxCell>
        <mxCell id="nGIF9m0Wj2FXg4HJTF-6-18" value="&lt;font color=&quot;#000000&quot;&gt;&lt;span style=&quot;font-size: 14px;&quot;&gt;RoomClient.js&lt;/span&gt;&lt;/font&gt;" style="rounded=1;whiteSpace=wrap;html=1;fillColor=#ffe6cc;strokeColor=#d79b00;direction=south;" vertex="1" parent="1">
          <mxGeometry x="-510" y="833.5" width="60" height="120" as="geometry" />
        </mxCell>
        <mxCell id="nGIF9m0Wj2FXg4HJTF-6-19" value="&lt;div style=&quot;font-size: 20px;&quot;&gt;&lt;font color=&quot;#000000&quot;&gt;ClassService&lt;/font&gt;&lt;/div&gt;" style="verticalAlign=top;align=left;spacingTop=8;spacingLeft=2;spacingRight=12;shape=cube;size=10;direction=south;fontStyle=4;html=1;whiteSpace=wrap;fillColor=#ffe6cc;strokeColor=#d79b00;" vertex="1" parent="1">
          <mxGeometry x="-669" y="1174" width="485" height="307" as="geometry" />
        </mxCell>
        <mxCell id="nGIF9m0Wj2FXg4HJTF-6-20" value="&lt;font color=&quot;#000000&quot;&gt;&lt;span style=&quot;font-size: 14px;&quot;&gt;Peer.js&lt;/span&gt;&lt;/font&gt;" style="rounded=1;whiteSpace=wrap;html=1;fillColor=#ffe6cc;strokeColor=#d79b00;" vertex="1" parent="1">
          <mxGeometry x="-599" y="1305" width="120" height="60" as="geometry" />
        </mxCell>
        <mxCell id="nGIF9m0Wj2FXg4HJTF-6-21" value="&lt;font color=&quot;#000000&quot;&gt;&lt;span style=&quot;font-size: 14px;&quot;&gt;Room.js&lt;/span&gt;&lt;/font&gt;" style="rounded=1;whiteSpace=wrap;html=1;fillColor=#ffe6cc;strokeColor=#d79b00;" vertex="1" parent="1">
          <mxGeometry x="-392" y="1305" width="120" height="60" as="geometry" />
        </mxCell>
        <mxCell id="nGIF9m0Wj2FXg4HJTF-6-22" value="&lt;font color=&quot;#000000&quot;&gt;&lt;span style=&quot;font-size: 14px;&quot;&gt;User.js&lt;/span&gt;&lt;/font&gt;" style="rounded=1;whiteSpace=wrap;html=1;fillColor=#ffe6cc;strokeColor=#d79b00;" vertex="1" parent="1">
          <mxGeometry x="-499.5" y="1401" width="120" height="60" as="geometry" />
        </mxCell>
        <mxCell id="nGIF9m0Wj2FXg4HJTF-6-24" value="&lt;font color=&quot;#000000&quot;&gt;&lt;span style=&quot;font-size: 14px;&quot;&gt;Firebase.js&lt;/span&gt;&lt;/font&gt;" style="rounded=1;whiteSpace=wrap;html=1;fillColor=#ffe6cc;strokeColor=#d79b00;" vertex="1" parent="1">
          <mxGeometry x="177.5" y="1365" width="120" height="60" as="geometry" />
        </mxCell>
        <mxCell id="nGIF9m0Wj2FXg4HJTF-6-28" value="&lt;font style=&quot;font-size: 14px;&quot; color=&quot;#000000&quot;&gt;FIrestoreManager&lt;/font&gt;" style="text;html=1;align=center;verticalAlign=middle;resizable=0;points=[];autosize=1;strokeColor=none;fillColor=none;" vertex="1" parent="1">
          <mxGeometry x="171" y="1283" width="129" height="29" as="geometry" />
        </mxCell>
        <mxCell id="nGIF9m0Wj2FXg4HJTF-6-30" value="" style="endArrow=classic;html=1;rounded=0;strokeColor=#000000;exitX=0.5;exitY=1;exitDx=0;exitDy=0;entryX=0;entryY=0;entryDx=0;entryDy=224.49999999999997;entryPerimeter=0;curved=1;" edge="1" parent="1" source="nGIF9m0Wj2FXg4HJTF-6-10" target="nGIF9m0Wj2FXg4HJTF-6-12">
          <mxGeometry width="50" height="50" relative="1" as="geometry">
            <mxPoint x="329" y="995" as="sourcePoint" />
            <mxPoint x="379" y="945" as="targetPoint" />
          </mxGeometry>
        </mxCell>
        <mxCell id="nGIF9m0Wj2FXg4HJTF-6-31" value="" style="endArrow=classic;html=1;rounded=0;strokeColor=#000000;exitX=0;exitY=1;exitDx=0;exitDy=0;entryX=0.5;entryY=0;entryDx=0;entryDy=0;" edge="1" parent="1" source="nGIF9m0Wj2FXg4HJTF-6-10" target="nGIF9m0Wj2FXg4HJTF-6-18">
          <mxGeometry width="50" height="50" relative="1" as="geometry">
            <mxPoint x="339" y="1005" as="sourcePoint" />
            <mxPoint x="389" y="955" as="targetPoint" />
          </mxGeometry>
        </mxCell>
        <mxCell id="nGIF9m0Wj2FXg4HJTF-6-32" value="" style="endArrow=classic;html=1;rounded=0;strokeColor=#000000;exitX=0;exitY=0;exitDx=209;exitDy=10;exitPerimeter=0;entryX=0.5;entryY=0;entryDx=0;entryDy=0;" edge="1" parent="1" source="nGIF9m0Wj2FXg4HJTF-6-12" target="nGIF9m0Wj2FXg4HJTF-6-27">
          <mxGeometry width="50" height="50" relative="1" as="geometry">
            <mxPoint x="349" y="1015" as="sourcePoint" />
            <mxPoint x="399" y="965" as="targetPoint" />
          </mxGeometry>
        </mxCell>
        <mxCell id="nGIF9m0Wj2FXg4HJTF-6-33" value="" style="endArrow=classic;html=1;rounded=0;strokeColor=#000000;exitX=1;exitY=1;exitDx=0;exitDy=0;exitPerimeter=0;entryX=0;entryY=0;entryDx=0;entryDy=237.50000000000003;entryPerimeter=0;" edge="1" parent="1" source="nGIF9m0Wj2FXg4HJTF-6-12" target="nGIF9m0Wj2FXg4HJTF-6-19">
          <mxGeometry width="50" height="50" relative="1" as="geometry">
            <mxPoint x="359" y="1025" as="sourcePoint" />
            <mxPoint x="409" y="975" as="targetPoint" />
          </mxGeometry>
        </mxCell>
        <mxCell id="nGIF9m0Wj2FXg4HJTF-6-36" value="&lt;div style=&quot;font-size: 20px;&quot;&gt;&lt;font color=&quot;#000000&quot;&gt;&amp;lt;&amp;lt;client&amp;gt;&amp;gt;&lt;/font&gt;&lt;/div&gt;&lt;div style=&quot;font-size: 20px;&quot;&gt;&lt;font color=&quot;#000000&quot;&gt;Browers&lt;/font&gt;&lt;/div&gt;" style="verticalAlign=top;align=center;spacingTop=8;spacingLeft=2;spacingRight=12;shape=cube;size=10;direction=south;fontStyle=4;html=1;whiteSpace=wrap;fillColor=#ffe6cc;strokeColor=#d79b00;" vertex="1" parent="1">
          <mxGeometry x="-125" y="133" width="209" height="99" as="geometry" />
        </mxCell>
        <mxCell id="nGIF9m0Wj2FXg4HJTF-6-39" value="" style="endArrow=classic;html=1;rounded=0;strokeColor=#000000;exitX=0;exitY=0;exitDx=99;exitDy=109.5;entryX=0;entryY=0;entryDx=0;entryDy=99.5;exitPerimeter=0;entryPerimeter=0;" edge="1" parent="1" source="nGIF9m0Wj2FXg4HJTF-6-36" target="nGIF9m0Wj2FXg4HJTF-6-41">
          <mxGeometry width="50" height="50" relative="1" as="geometry">
            <mxPoint x="-33" y="793" as="sourcePoint" />
            <mxPoint x="-440" y="904" as="targetPoint" />
          </mxGeometry>
        </mxCell>
        <mxCell id="nGIF9m0Wj2FXg4HJTF-6-41" value="&lt;div style=&quot;font-size: 20px;&quot;&gt;&lt;font color=&quot;#000000&quot;&gt;&amp;lt;&amp;lt;web_server&amp;gt;&amp;gt;&lt;/font&gt;&lt;/div&gt;&lt;div style=&quot;font-size: 20px;&quot;&gt;&lt;font color=&quot;#000000&quot;&gt;Reverse_Proxy&lt;/font&gt;&lt;/div&gt;" style="verticalAlign=top;align=center;spacingTop=8;spacingLeft=2;spacingRight=12;shape=cube;size=10;direction=south;fontStyle=4;html=1;whiteSpace=wrap;fillColor=#ffe6cc;strokeColor=#d79b00;" vertex="1" parent="1">
          <mxGeometry x="-130" y="353" width="209" height="99" as="geometry" />
        </mxCell>
        <mxCell id="nGIF9m0Wj2FXg4HJTF-6-42" value="" style="endArrow=classic;html=1;rounded=0;strokeColor=#000000;exitX=0;exitY=0;exitDx=99;exitDy=109.5;entryX=0;entryY=0;entryDx=0;entryDy=224.5;exitPerimeter=0;entryPerimeter=0;" edge="1" parent="1" source="nGIF9m0Wj2FXg4HJTF-6-41" target="nGIF9m0Wj2FXg4HJTF-6-8">
          <mxGeometry width="50" height="50" relative="1" as="geometry">
            <mxPoint x="-15" y="242" as="sourcePoint" />
            <mxPoint x="-10" y="363" as="targetPoint" />
          </mxGeometry>
        </mxCell>
        <mxCell id="nGIF9m0Wj2FXg4HJTF-6-43" value="&lt;font style=&quot;font-size: 14px;&quot; color=&quot;#000000&quot;&gt;HTTPS&lt;/font&gt;" style="text;html=1;align=center;verticalAlign=middle;resizable=0;points=[];autosize=1;strokeColor=none;fillColor=none;" vertex="1" parent="1">
          <mxGeometry x="17" y="273" width="64" height="29" as="geometry" />
        </mxCell>
        <mxCell id="nGIF9m0Wj2FXg4HJTF-6-44" value="&lt;font style=&quot;font-size: 14px;&quot; color=&quot;#000000&quot;&gt;HTTPS&lt;/font&gt;" style="text;html=1;align=center;verticalAlign=middle;resizable=0;points=[];autosize=1;strokeColor=none;fillColor=none;" vertex="1" parent="1">
          <mxGeometry x="-390" y="828" width="64" height="29" as="geometry" />
        </mxCell>
        <mxCell id="nGIF9m0Wj2FXg4HJTF-6-45" value="&lt;font style=&quot;font-size: 14px;&quot; color=&quot;#000000&quot;&gt;HTTPS&lt;/font&gt;" style="text;html=1;align=center;verticalAlign=middle;resizable=0;points=[];autosize=1;strokeColor=none;fillColor=none;" vertex="1" parent="1">
          <mxGeometry x="-32" y="865" width="64" height="29" as="geometry" />
        </mxCell>
      </root>
    </mxGraphModel>
  </diagram>
</mxfile>
